<svg width="40" height="40" viewBox="0 0 40 40" fill="none" xmlns="http://www.w3.org/2000/svg">
<path d="M18.3239 6.46519C14.175 7.20973 11.0263 10.2618 10.1624 14.3766C10.009 15.1098 9.95213 16.9399 10.0488 17.9061C10.3613 20.8672 11.5606 23.726 13.743 26.6985C14.533 27.7727 15.1071 28.4661 17.3862 31.1032C18.0909 31.916 18.8241 32.7799 19.023 33.0243C19.4379 33.5301 19.6027 33.6324 20.0006 33.6324C20.3984 33.6324 20.5633 33.5301 20.9782 33.0243C21.1771 32.7799 21.9216 31.9046 22.6434 31.0748C25.0816 28.2615 26.0649 27.0338 26.9743 25.6755C28.702 23.0838 29.6739 20.5376 29.9524 17.9061C30.049 16.9399 29.9922 15.1041 29.8388 14.3937C28.9692 10.3698 26.0706 7.43707 22.0751 6.53908C21.5408 6.41972 21.268 6.39699 20.1995 6.37426C19.1367 6.35721 18.8582 6.36857 18.3239 6.46519ZM20.7679 8.24982C21.6886 8.30665 22.9674 8.68745 23.8654 9.18191C24.5531 9.55702 25.1385 10.006 25.7694 10.6369C26.9117 11.785 27.6335 13.1149 27.9859 14.7063C28.1337 15.3599 28.1621 17.1104 28.0484 18.0027C27.6449 21.0661 26.2581 23.834 23.3993 27.2782C22.5354 28.324 20.0404 31.1885 20.0006 31.1885C19.9608 31.1885 17.4657 28.324 16.6018 27.2782C13.743 23.834 12.3392 21.032 11.9527 17.9914C11.8106 16.8717 11.8618 15.2974 12.0664 14.4789C12.4586 12.9273 13.1349 11.7338 14.2546 10.6142C15.3969 9.47177 16.6018 8.79543 18.1534 8.42032C18.7218 8.28392 19.7732 8.17025 20.1143 8.20435C20.1938 8.21572 20.4894 8.23277 20.7679 8.24982Z" fill="#E81212"/>
<path d="M18.8639 10.9836C16.8349 11.4383 15.2833 12.8989 14.7035 14.9109C14.5899 15.3031 14.5728 15.4849 14.5728 16.3545C14.5728 17.2241 14.5899 17.406 14.7035 17.7981C15.2492 19.685 16.6587 21.1002 18.5286 21.6459C19.1708 21.8277 20.4723 21.8618 21.1771 21.7084C23.172 21.2651 24.7179 19.7987 25.2976 17.7981C25.4113 17.406 25.4283 17.2241 25.4283 16.3545C25.4283 15.4849 25.4113 15.3031 25.2976 14.9109C24.752 13.024 23.3482 11.6145 21.4726 11.0632C20.9213 10.904 19.4322 10.8585 18.8639 10.9836ZM21.1373 12.9444C22.1831 13.2968 23.0754 14.1891 23.4164 15.2235C23.53 15.5815 23.5528 15.7521 23.5528 16.3829C23.5528 17.0365 23.5357 17.1672 23.405 17.531C22.3536 20.4125 18.4945 20.8047 16.9088 18.1846C16.545 17.5821 16.4484 17.2127 16.4484 16.3829C16.4484 15.7521 16.4711 15.5815 16.5848 15.2292C17.1986 13.3593 19.2731 12.3192 21.1373 12.9444Z" fill="#E81212"/>
<path fill-rule="evenodd" clip-rule="evenodd" d="M20.7679 8.24982C21.6886 8.30665 22.9674 8.68745 23.8654 9.18191C24.5531 9.55702 25.1385 10.006 25.7694 10.6369C26.9117 11.785 27.6335 13.1149 27.9859 14.7063C28.1337 15.3599 28.1621 17.1104 28.0484 18.0027C27.6449 21.0661 26.2581 23.834 23.3993 27.2782C22.5354 28.324 20.0404 31.1885 20.0006 31.1885C19.9608 31.1885 17.4657 28.324 16.6018 27.2782C13.743 23.834 12.3392 21.032 11.9527 17.9914C11.8106 16.8717 11.8618 15.2974 12.0664 14.4789C12.4586 12.9273 13.1349 11.7338 14.2546 10.6142C15.3969 9.47177 16.6018 8.79543 18.1534 8.42032C18.7218 8.28392 19.7732 8.17025 20.1143 8.20435C20.1938 8.21572 20.4894 8.23277 20.7679 8.24982ZM14.7035 14.9109C15.2833 12.8989 16.8349 11.4383 18.8639 10.9836C19.4322 10.8585 20.9213 10.904 21.4726 11.0632C23.3482 11.6145 24.752 13.024 25.2976 14.9109C25.4113 15.3031 25.4283 15.4849 25.4283 16.3545C25.4283 17.2241 25.4113 17.406 25.2976 17.7981C24.7179 19.7987 23.172 21.2651 21.1771 21.7084C20.4723 21.8618 19.1708 21.8277 18.5286 21.6459C16.6587 21.1002 15.2492 19.685 14.7035 17.7981C14.5899 17.406 14.5728 17.2241 14.5728 16.3545C14.5728 15.4849 14.5899 15.3031 14.7035 14.9109Z" fill="#E81212"/>
</svg>
