<svg width="24" height="24" viewBox="0 0 24 24" fill="none" xmlns="http://www.w3.org/2000/svg">
<path d="M7.63683 6.27023L20.8087 6.27023H20.8088L7.63683 6.27023ZM7.63683 6.27023L7.17049 4.06514L7.17049 4.06514C7.14864 3.96188 7.09199 3.86927 7.01001 3.8028C6.92803 3.73633 6.82571 3.70004 6.72017 3.7H6.72015H2.44739H2.39739V3.75V4.5709V4.6209H2.44739H6.34715L8.66252 15.571L8.71144 15.5606L8.66252 15.571C8.68438 15.6743 8.74107 15.7669 8.82309 15.8334C8.90512 15.8999 9.00749 15.9361 9.11306 15.9361H18.2639H18.264V15.8861L7.63683 6.27023ZM7.83158 7.19112L20.8104 7.19112C20.8608 7.19117 20.9105 7.20268 20.9558 7.22479C21.0011 7.24689 21.0408 7.279 21.0719 7.3187C21.103 7.3584 21.1246 7.40464 21.1352 7.45394C21.1458 7.50322 21.145 7.55425 21.1329 7.60319L21.1329 7.60323M7.83158 7.19112L21.1329 7.60323M7.83158 7.19112L9.48626 15.0152H18.264H18.2641C18.56 15.016 18.8475 14.9173 19.0806 14.7351C19.3137 14.5529 19.4788 14.2976 19.5494 14.0103L19.5494 14.0103L21.1329 7.60323M7.83158 7.19112L21.1329 7.60323" fill="#443E3E" stroke="#443E3E" stroke-width="0.1"/>
<path d="M13.2245 18.5401V18.5401C13.2246 18.1919 13.1214 17.8516 12.928 17.5621C12.7346 17.2727 12.4597 17.047 12.1381 16.9138C11.8165 16.7805 11.4626 16.7456 11.1212 16.8135C10.7797 16.8814 10.4661 17.049 10.2199 17.2952C9.9737 17.5413 9.80604 17.855 9.73811 18.1964C9.67018 18.5378 9.70502 18.8918 9.83824 19.2134C9.97145 19.535 10.1971 19.8099 10.4865 20.0033C10.776 20.1968 11.1163 20.3 11.4644 20.3H11.4645C11.9311 20.2995 12.3784 20.1139 12.7084 19.784C13.0384 19.4541 13.224 19.0067 13.2245 18.5401ZM10.9982 17.8421C11.1313 17.7531 11.2869 17.7042 11.4467 17.7008L11.4644 17.7008C11.6869 17.7011 11.9002 17.7896 12.0575 17.9469C12.2149 18.1043 12.3034 18.3176 12.3036 18.5401L12.3536 18.5401L12.3036 18.5401C12.3036 18.706 12.2544 18.8683 12.1621 19.0063C12.0699 19.1442 11.9388 19.2518 11.7854 19.3153C11.6321 19.3788 11.4633 19.3954 11.3006 19.3629C11.1378 19.3305 10.9883 19.2506 10.8709 19.1332C10.7536 19.0158 10.6736 18.8663 10.6413 18.7035C10.6089 18.5407 10.6255 18.372 10.6891 18.2187C10.7526 18.0653 10.8602 17.9343 10.9982 17.8421Z" fill="#443E3E" stroke="#443E3E" stroke-width="0.1"/>
<path d="M19.0939 18.5401V18.5401C19.094 18.1919 18.9907 17.8516 18.7973 17.5621C18.6039 17.2726 18.329 17.0469 18.0073 16.9137C17.6856 16.7805 17.3317 16.7456 16.9902 16.8136C16.6488 16.8816 16.3351 17.0493 16.089 17.2955C15.8428 17.5417 15.6752 17.8554 15.6074 18.1969C15.5396 18.5384 15.5745 18.8924 15.7079 19.214C15.8412 19.5356 16.0669 19.8105 16.3565 20.0038C16.6461 20.1971 16.9865 20.3002 17.3346 20.3H17.3347C17.8011 20.2993 18.2483 20.1136 18.5781 19.7837C18.9078 19.4538 19.0934 19.0066 19.0939 18.5401ZM16.8681 17.8417C17.0013 17.7528 17.157 17.704 17.3169 17.7008L17.3345 17.7008C17.5569 17.7013 17.77 17.7899 17.9272 17.9472C18.0844 18.1045 18.1728 18.3178 18.173 18.5401L18.223 18.5401L18.173 18.5401C18.173 18.7061 18.1237 18.8683 18.0314 19.0064C17.9392 19.1444 17.808 19.2519 17.6546 19.3154C17.5012 19.3788 17.3325 19.3954 17.1697 19.3629C17.0069 19.3304 16.8573 19.2504 16.74 19.133C16.6227 19.0155 16.5428 18.8659 16.5106 18.7031C16.4783 18.5402 16.495 18.3715 16.5587 18.2181C16.6223 18.0648 16.73 17.9338 16.8681 17.8417Z" fill="#443E3E" stroke="#443E3E" stroke-width="0.1"/>
</svg>
