<svg width="19" height="17" viewBox="0 0 19 17" fill="none" xmlns="http://www.w3.org/2000/svg">
<path d="M4.41754 0.0956898C3.67186 0.225534 2.77038 0.615067 2.18793 1.05654C1.20112 1.80221 0.466573 2.95968 0.162367 4.23215C-0.000865259 4.92959 -0.049093 5.9869 0.0547821 6.66208C0.325599 8.42796 1.37919 10.1048 3.43072 12.0339C4.19124 12.7499 4.72174 13.2173 6.88086 15.076C8.20898 16.2223 8.87675 16.7714 9.01772 16.8381C9.30709 16.9791 9.69291 16.9791 9.98228 16.8418C10.2605 16.7046 14.2152 13.3064 15.5544 12.0488C17.606 10.1234 18.6744 8.42796 18.9452 6.66208C19.0491 5.9869 19.0009 4.92959 18.8376 4.23215C18.5334 2.95968 17.7989 1.80221 16.8121 1.05654C16.2148 0.603937 15.3207 0.221825 14.5454 0.0956898C14.1262 0.0252037 13.2692 0.0252037 12.8537 0.0956898C11.7036 0.296021 10.6241 0.934113 9.81163 1.90238C9.6521 2.09158 9.51484 2.24739 9.5 2.24739C9.48516 2.24739 9.3479 2.09158 9.18838 1.90238C8.37592 0.934113 7.29636 0.296021 6.14632 0.0956898C5.74566 0.0289135 4.8182 0.0289135 4.41754 0.0956898ZM6.27245 1.29767C6.6323 1.40155 7.2333 1.69834 7.51524 1.9098C7.86397 2.17319 8.33141 2.65918 8.58367 3.01903C8.70981 3.20082 8.8582 3.41599 8.91385 3.49389C9.19209 3.88713 9.80792 3.88713 10.0862 3.49389C10.1418 3.41599 10.2902 3.20082 10.4163 3.01903C10.6686 2.65918 11.136 2.17319 11.4848 1.9098C11.7741 1.69463 12.3714 1.40155 12.7461 1.29396C13.0058 1.21977 13.1245 1.20864 13.7107 1.20864C14.4415 1.21235 14.6863 1.25687 15.2502 1.48317C16.5004 1.99141 17.4353 3.18227 17.7581 4.67733C17.8545 5.12622 17.8582 6.30594 17.7618 6.75483C17.4094 8.39457 16.3001 9.86737 13.6661 12.2009C12.2972 13.414 9.51855 15.7697 9.47774 15.7549C9.42209 15.7326 6.20567 12.9762 5.32645 12.1934C2.68505 9.84882 1.59436 8.39457 1.23822 6.75483C1.14176 6.30594 1.14547 5.12622 1.24193 4.67733C1.61662 2.95226 2.75925 1.69092 4.30253 1.30509C4.71432 1.19751 4.75142 1.19751 5.40064 1.20864C5.8755 1.21606 6.04986 1.23461 6.27245 1.29767Z" fill="#443E3E"/>
</svg>
