<svg width="40" height="40" viewBox="0 0 40 40" fill="none" xmlns="http://www.w3.org/2000/svg">
<path d="M10.6243 11.1982C10.1003 11.3486 9.75846 11.5583 9.31185 12.0003C8.95182 12.3558 8.86523 12.4697 8.6875 12.8434C8.57357 13.0804 8.46875 13.3356 8.45508 13.4131L8.42773 13.5498L14.1745 17.3323C17.3372 19.4105 19.9577 21.1149 19.9987 21.1103C20.0397 21.1103 22.6602 19.4105 25.8275 17.3323L31.5833 13.5589L31.556 13.4176C31.5378 13.3402 31.4329 13.0804 31.319 12.8434C31.1413 12.4697 31.0547 12.3558 30.6947 12.0003C30.3802 11.6859 30.1979 11.5491 29.9382 11.4215C29.2591 11.0889 30.0521 11.1116 19.9805 11.1162C11.3945 11.1162 10.8978 11.1208 10.6243 11.1982Z" fill="#E81212"/>
<path d="M8.33658 20.6009C8.33658 25.9011 8.34114 26.1426 8.42772 26.4662C8.4733 26.6485 8.53254 26.8216 8.55533 26.8444C8.57811 26.8672 10.1549 25.6322 12.5703 23.6862C15.7513 21.125 16.5306 20.4733 16.485 20.4278C16.4121 20.3639 8.39127 15.0775 8.35936 15.0775C8.34569 15.0775 8.33658 17.5658 8.33658 20.6009Z" fill="#E81212"/>
<path d="M27.5592 17.7565C25.3125 19.2285 23.4713 20.4453 23.4713 20.459C23.4668 20.5 31.36 26.8574 31.4147 26.8574C31.4375 26.8574 31.5013 26.7435 31.5514 26.6068C31.6471 26.3607 31.6471 26.2969 31.6608 21.6621C31.6654 19.0781 31.6654 16.5443 31.6608 16.0247L31.6471 15.0814L27.5592 17.7565Z" fill="#E81212"/>
<path d="M13.5091 24.6062C11.2031 26.4656 9.31183 27.9969 9.30728 28.0151C9.28905 28.0698 9.84504 28.4754 10.1276 28.6075C10.7565 28.9038 10.0547 28.8855 20.0124 28.8855C29.013 28.8855 29.054 28.8855 29.3913 28.7898C29.5781 28.7397 29.847 28.6349 29.9883 28.562C30.248 28.4207 30.7083 28.047 30.6673 28.006C30.6491 27.9923 22.4915 21.4207 22.3047 21.2703C22.2728 21.2475 21.9355 21.448 21.4616 21.7625C21.0241 22.0541 20.5729 22.3321 20.4635 22.3823C20.222 22.4871 19.7708 22.4962 19.5384 22.4005C19.4518 22.364 19.0052 22.086 18.554 21.7807C18.0983 21.4799 17.72 21.2293 17.7155 21.2293C17.7064 21.2293 15.8151 22.7514 13.5091 24.6062Z" fill="#E81212"/>
</svg>
