<svg width="40" height="40" viewBox="0 0 40 40" fill="none" xmlns="http://www.w3.org/2000/svg">
<path d="M31.1499 26.6864L31.0376 26.3446C30.7739 25.5585 29.9048 24.7382 29.104 24.5184L26.1475 23.7103C25.3467 23.4931 24.2041 23.786 23.6159 24.3744L22.5465 25.4438C18.6598 24.3915 15.6105 21.3422 14.5606 17.4555L15.63 16.3861C16.2159 15.8002 16.5089 14.6576 16.2916 13.8544L15.4859 10.8978C15.2686 10.097 14.4434 9.2279 13.6573 8.96423L13.3203 8.85188C12.5317 8.58821 11.4062 8.8543 10.8203 9.44274L9.21874 11.0443C8.93312 11.3275 8.74999 12.143 8.74999 12.143C8.69624 17.226 10.6885 22.121 14.2823 25.7172C17.8662 29.3012 22.7442 31.291 27.8101 31.247C27.8369 31.247 28.6744 31.0688 28.96 30.7831L30.5616 29.1815C31.1475 28.598 31.4111 27.4725 31.1499 26.6864Z" fill="#E81212"/>
</svg>
